<?xml version="1.0" encoding="UTF-8" standalone="no"?>
<svg
   height="1em"
   viewBox="-10 -5 1034 1034"
   style="vertical-align: middle"
   version="1.1"
   id="svg58"
   sodipodi:docname="fediverse-logo.svg"
   inkscape:version="1.2.1 (9c6d41e410, 2022-07-14)"
   xmlns:inkscape="http://www.inkscape.org/namespaces/inkscape"
   xmlns:sodipodi="http://sodipodi.sourceforge.net/DTD/sodipodi-0.dtd"
   xmlns="http://www.w3.org/2000/svg"
   xmlns:svg="http://www.w3.org/2000/svg">
  <defs
     id="defs7" />
  <sodipodi:namedview
     id="namedview5"
     pagecolor="#ffffff"
     bordercolor="#666666"
     borderopacity="1.0"
     inkscape:showpageshadow="2"
     inkscape:pageopacity="0.0"
     inkscape:pagecheckerboard="0"
     inkscape:deskcolor="#d1d1d1"
     showgrid="false"
     inkscape:zoom="0.64555977"
     inkscape:cx="382.61368"
     inkscape:cy="419.79072"
     inkscape:window-width="1920"
     inkscape:window-height="968"
     inkscape:window-x="1280"
     inkscape:window-y="39"
     inkscape:window-maximized="1"
     inkscape:current-layer="svg58" />
  <path
     fill="currentColor"
     d="m 552.48586,16.557863 q -37.32172,0 -64.1467,25.658672 -26.82498,25.658683 -29.15759,64.146695 -2.33261,38.48802 23.90922,67.64561 26.24183,29.1576 65.31301,31.4902 39.07117,2.33261 68.22877,-23.90922 29.15758,-26.24184 31.4902,-65.31301 2.3326,-39.071164 -23.90923,-68.811907 -26.24183,-29.740744 -65.89616,-30.90704 z M 451.01744,127.3567 180.435,264.98053 q 23.32608,23.32607 29.15759,55.98258 L 479.00873,183.33927 Q 456.84896,160.01319 451.01744,127.3567 Z m 194.77271,31.4902 q -15.16195,29.15758 -44.31953,44.31954 l 213.43356,214.59987 q 15.16195,-29.1576 45.48584,-44.31954 z m -165.61511,25.65868 -157.451,309.07046 46.65215,46.65215 166.78143,-326.56503 q -32.65651,-5.83151 -55.98258,-29.15758 z m 121.29558,18.66086 q -25.65868,12.82933 -53.64997,11.66303 l -9.33043,-1.16631 24.49238,153.95209 65.313,10.49673 z m -496.84535,39.65432 q -37.321727,0 -64.14671,26.24183 -26.824984,26.24183 -29.157591,64.1467 -2.3326071,37.90487 23.909225,67.64561 26.241831,29.74074 65.896166,31.4902 39.65432,1.74945 68.81191,-24.49238 29.15759,-26.24183 30.90704,-65.313 1.74946,-39.07118 -24.49237,-68.22876 -26.24183,-29.1576 -64.72986,-31.4902 z m 104.96732,79.30864 q 1.1663,10.49674 1.1663,20.99348 -1.1663,22.15976 -11.66303,40.82061 l 153.95208,24.49239 30.3239,-58.31519 z m 262.41832,41.98694 -30.32389,59.48149 362.72043,57.14887 q -1.1663,-9.33043 -1.1663,-19.82716 1.1663,-22.15977 11.66303,-41.98693 z m 433.86496,6.99782 q -37.32172,1.1663 -64.14671,26.82498 -26.82498,25.65869 -28.57443,64.1467 -1.74946,38.48803 24.49237,67.64561 26.24183,29.1576 65.31301,31.4902 39.07117,2.33262 68.22877,-23.90922 29.15752,-26.24184 31.49012,-65.89616 2.3327,-39.65432 -23.90915,-68.81192 -26.24183,-29.15758 -65.89617,-31.49019 z m -706.78001,15.16195 q -15.16195,29.15758 -45.48584,44.31953 l 244.92376,244.92378 59.48149,-29.1576 z m -46.65215,44.31953 q -24.49237,12.82934 -51.31735,11.66305 l -10.496746,-1.16631 46.652146,298.57373 q 24.49238,-11.66303 52.48367,-10.49673 l 9.33043,1.1663 z m 424.53452,25.65868 55.98258,362.72043 q 24.49238,-11.66303 51.31736,-10.49672 l 11.66304,1.1663 -53.64997,-342.89327 z m 227.42922,26.82498 -137.62383,69.97823 9.33043,65.313 157.45099,-79.30865 Q 810.23896,515.73581 804.40745,483.0793 Z m 30.32389,57.14889 -138.79013,269.41614 q 32.65651,5.83151 55.98257,29.15759 L 890.71391,569.38578 q -32.65649,-5.83151 -55.98257,-29.15759 z m -553.99423,33.8228 -79.30865,156.28469 q 32.65651,5.83152 55.98258,29.1576 l 69.97822,-138.79014 z m 305.57155,19.82717 -327.73132,166.78142 q 22.15977,23.32607 27.99129,55.98257 L 595.63909,659.19116 Z m -64.14669,116.63036 -59.48149,29.15759 123.62818,124.79449 q 15.16196,-29.15759 45.48585,-44.31954 z M 182.7676,738.4998 q -37.32171,0 -64.72984,26.24184 -27.408146,26.24183 -29.157602,64.1467 -1.749456,37.90487 24.492382,67.06246 26.24183,29.15759 65.313,31.49019 39.07117,2.33262 68.22877,-23.90921 29.15758,-26.24183 31.4902,-65.31301 2.3326,-39.07117 -23.90923,-68.22877 -26.24183,-29.15758 -65.89616,-31.4902 z m 103.80103,79.30866 q 2.33261,10.49672 1.16631,20.99346 -1.16631,22.15977 -10.49674,40.82063 l 298.57374,47.81844 q -1.16631,-10.49672 -1.16631,-20.99346 1.16631,-20.99346 11.66303,-40.82063 z m 390.71172,0 q -37.32172,0 -64.1467,26.24183 -26.82499,26.24183 -28.57443,64.1467 -1.74946,37.90485 23.90921,67.64556 25.65869,29.74085 65.31301,31.49025 39.65433,1.7494 68.81191,-24.4924 29.1576,-26.24184 31.4902,-65.31298 2.33261,-39.07118 -23.90922,-68.22876 -26.24183,-29.1576 -65.89616,-31.4902 z"
     style="stroke-width:1.16631"
     id="path2" />
</svg>
