<?xml version="1.0" encoding="UTF-8" standalone="no"?>
<!-- Created with Inkscape (http://www.inkscape.org/) -->

<svg
   version="1.1"
   id="svg9"
   xml:space="preserve"
   width="466.66666"
   height="466.66666"
   viewBox="0 0 466.66666 466.66666"
   xmlns="http://www.w3.org/2000/svg"
   xmlns:svg="http://www.w3.org/2000/svg"><defs
     id="defs13"><clipPath
       clipPathUnits="userSpaceOnUse"
       id="clipPath23"><path
         d="M 0,350 H 350 V 0 H 0 Z"
         id="path21" /></clipPath></defs><g
     id="g15"
     transform="matrix(1.3333333,0,0,-1.3333333,0,466.66667)"><g
       id="g17"
       transform="matrix(1.1666775,0,0,1.1630525,-29.168574,-28.534182)"><g
         id="g19"
         clip-path="url(#clipPath23)"><g
           id="g25"
           transform="translate(256.6582,225.6035)"><path
             d="m 0,0 c 2.917,0.449 5.796,0.673 8.64,0.673 2.918,0 5.835,-0.224 8.753,-0.673 l -1.122,-54.87 c -2.621,-0.448 -5.125,-0.673 -7.519,-0.673 -2.544,0 -5.088,0.225 -7.63,0.673 z m 0.449,-80.678 c -0.449,2.767 -0.674,5.498 -0.674,8.192 0,2.692 0.225,5.459 0.674,8.303 2.767,0.449 5.498,0.673 8.191,0.673 2.693,0 5.46,-0.224 8.303,-0.673 0.45,-2.844 0.673,-5.574 0.673,-8.191 0,-2.769 -0.223,-5.537 -0.673,-8.304 -2.843,-0.449 -5.573,-0.673 -8.191,-0.673 -2.769,0 -5.536,0.224 -8.303,0.673 m -65.866,58.012 c 2.693,0.449 5.348,0.673 7.967,0.673 2.617,0 5.273,-0.224 7.967,-0.673 v -30.745 c 0,-3.068 0.242,-5.593 0.729,-7.574 0.485,-1.983 1.234,-3.554 2.244,-4.713 1.01,-1.16 2.262,-1.983 3.759,-2.468 1.496,-0.488 3.254,-0.73 5.273,-0.73 2.768,0 5.087,0.261 6.957,0.786 v 45.444 c 2.694,0.449 5.311,0.673 7.855,0.673 2.618,0 5.274,-0.224 7.967,-0.673 v -55.768 c -2.395,-0.824 -5.554,-1.627 -9.482,-2.412 -3.926,-0.786 -8.022,-1.178 -12.286,-1.178 -3.815,0 -7.481,0.299 -10.997,0.897 -3.516,0.599 -6.602,1.869 -9.257,3.815 -2.656,1.945 -4.768,4.787 -6.34,8.529 -1.571,3.739 -2.356,8.713 -2.356,14.923 z m -39.384,-32.765 c -4.19,1.196 -7.462,2.974 -9.818,5.329 -2.357,2.358 -3.534,5.892 -3.534,10.605 0,5.684 2.037,10.135 6.115,13.352 4.076,3.216 9.631,4.826 16.662,4.826 2.918,0 5.797,-0.264 8.641,-0.786 2.841,-0.524 5.722,-1.31 8.639,-2.356 -0.15,-1.946 -0.523,-3.966 -1.121,-6.06 -0.599,-2.095 -1.31,-3.927 -2.133,-5.498 -1.796,0.747 -3.778,1.403 -5.946,1.964 -2.171,0.561 -4.452,0.842 -6.846,0.842 -2.543,0 -4.526,-0.393 -5.947,-1.179 -1.422,-0.785 -2.131,-2.039 -2.131,-3.759 0,-1.646 0.504,-2.805 1.514,-3.478 1.011,-0.673 2.449,-1.31 4.32,-1.908 l 6.397,-1.907 c 2.093,-0.6 3.983,-1.329 5.666,-2.189 1.683,-0.86 3.123,-1.926 4.32,-3.197 1.196,-1.274 2.132,-2.844 2.806,-4.713 0.672,-1.871 1.009,-4.151 1.009,-6.845 0,-2.768 -0.58,-5.349 -1.74,-7.742 -1.16,-2.395 -2.843,-4.471 -5.049,-6.227 -2.207,-1.759 -4.88,-3.143 -8.022,-4.153 -3.143,-1.01 -6.695,-1.514 -10.66,-1.514 -1.795,0 -3.442,0.056 -4.938,0.169 -1.497,0.111 -2.936,0.299 -4.32,0.56 -1.385,0.263 -2.748,0.58 -4.096,0.954 -1.345,0.373 -2.804,0.859 -4.375,1.458 0.149,2.021 0.504,4.058 1.066,6.116 0.561,2.056 1.29,4.057 2.188,6.003 2.469,-0.973 4.805,-1.702 7.013,-2.188 2.206,-0.487 4.506,-0.73 6.901,-0.73 1.047,0 2.188,0.094 3.422,0.282 1.235,0.185 2.374,0.522 3.422,1.009 1.047,0.486 1.926,1.122 2.637,1.908 0.711,0.785 1.066,1.812 1.066,3.086 0,1.794 -0.543,3.085 -1.627,3.871 -1.085,0.785 -2.599,1.476 -4.545,2.076 z m -51.727,-14.474 c 4.189,0 7.199,1.551 9.033,4.656 1.832,3.103 2.749,7.574 2.749,13.409 0,5.835 -0.917,10.304 -2.749,13.409 -1.834,3.103 -4.844,4.657 -9.033,4.657 -4.115,0 -7.088,-1.554 -8.92,-4.657 -1.834,-3.105 -2.749,-7.574 -2.749,-13.409 0,-5.835 0.915,-10.306 2.749,-13.409 1.832,-3.105 4.805,-4.656 8.92,-4.656 m 0,-12.119 c -4.713,0 -8.808,0.768 -12.286,2.3 -3.479,1.533 -6.36,3.664 -8.64,6.396 -2.283,2.729 -4.004,5.928 -5.162,9.594 -1.16,3.664 -1.739,7.63 -1.739,11.894 0,4.264 0.579,8.265 1.739,12.006 1.158,3.74 2.879,6.975 5.162,9.706 2.28,2.73 5.161,4.881 8.64,6.452 3.478,1.571 7.573,2.357 12.286,2.357 4.713,0 8.826,-0.786 12.343,-2.357 3.516,-1.571 6.433,-3.722 8.752,-6.452 2.319,-2.731 4.039,-5.966 5.162,-9.706 1.122,-3.741 1.683,-7.742 1.683,-12.006 0,-4.264 -0.561,-8.23 -1.683,-11.894 -1.123,-3.666 -2.843,-6.865 -5.162,-9.594 -2.319,-2.732 -5.236,-4.863 -8.752,-6.396 -3.517,-1.532 -7.63,-2.3 -12.343,-2.3"
             style="fill:#000000;fill-opacity:1;fill-rule:nonzero;stroke:none"
             id="path27" /></g><g
           id="g29"
           transform="translate(175,40)"><path
             d="M 0,0 C -74.559,0 -135,60.442 -135,134.999 -135,209.559 -74.559,270 0,270 74.559,270 135,209.559 135,134.999 135,60.442 74.559,0 0,0 M 0,285 C -82.843,285 -150,217.843 -150,134.999 -150,52.158 -82.843,-15 0,-15 82.844,-15 150,52.158 150,134.999 150,217.843 82.844,285 0,285"
             style="fill:#000000;fill-opacity:1;fill-rule:nonzero;stroke:none"
             id="path31" /></g></g></g></g></svg>
